<svg width="240" height="60" viewBox="0 0 240 60" fill="none" xmlns="http://www.w3.org/2000/svg">
<g id="Group 1">
<path id="Subtract" fill-rule="evenodd" clip-rule="evenodd" d="M15 0C6.71573 0 0 6.71573 0 15V45C0 53.2843 6.71573 60 15 60H25.7956L29.9194 55.8329L34.4544 51.2504L33.3062 51.3874C31.8224 51.5644 28.3353 51.5039 26.7983 51.2744C21.887 50.5411 17.5979 48.4848 13.9997 45.1386C8.1736 39.7203 5.65734 32.5046 7.05248 25.2161C7.63311 22.1827 9.04936 18.9342 10.8529 16.4992C11.1708 16.0698 11.516 15.5983 11.6199 15.4514C11.7239 15.3045 12.7244 14.2935 13.8432 13.2046C15.979 11.126 16.7066 10.5653 18.7679 9.40961C25.3594 5.71402 33.1931 5.77992 39.6984 9.58558C45.9294 13.2308 50.1909 19.5683 51.2742 26.8007C51.5039 28.3338 51.5645 31.8215 51.3874 33.3062L51.2504 34.4544L55.8329 29.9194L60 25.7957V15C60 6.71573 53.2843 0 45 0H15ZM60 33.7022L57.5246 36.1777L50.6826 43.0196L48.5354 40.8724L46.3881 38.7251L46.566 37.854C46.8178 36.6206 46.7539 33.1988 46.4464 31.4447C46.1639 29.833 45.2992 27.0249 44.6469 25.6006C42.8192 21.6099 39.9766 18.1291 36.7736 15.9597C31.4463 12.3514 25.1666 11.8965 20.2695 14.764C18.1325 16.0154 16.0133 18.1363 14.758 20.2796C12.2546 24.5546 12.2881 30.1098 14.8464 34.9156C15.9203 36.9329 16.6258 37.867 18.4456 39.6815C20.1554 41.3864 21.1577 42.1726 23.082 43.3184C27.6585 46.0436 33.3767 47.3049 37.7788 46.5601L38.7354 46.3983L40.8775 48.5405L43.0196 50.6826L36.1777 57.5245L33.7022 60H45C53.2843 60 60 53.2843 60 45V33.7022Z" fill="#3F9FFF"/>
<g id="omegle">
<path id="Vector" d="M224.486 32.926C224.678 35.8373 225.271 37.8866 226.267 39.0741C227.263 40.2233 228.776 40.7979 230.806 40.7979C232.339 40.7979 233.775 40.568 235.116 40.1084C236.495 39.6487 237.625 39.2273 238.506 38.8443V43.6134C237.28 44.7242 235.748 45.4903 233.909 45.9117C232.071 46.3714 230.289 46.6012 228.566 46.6012C227.148 46.6012 225.75 46.4288 224.371 46.0841C222.992 45.7393 221.747 45.0881 220.636 44.1305C219.564 43.1345 218.683 41.7747 217.993 40.0509C217.342 38.2888 217.016 35.9905 217.016 33.1559C217.016 30.3595 217.361 27.9271 218.051 25.8586C218.74 23.7518 219.679 22.0088 220.866 20.6298C222.092 19.2508 223.509 18.2166 225.118 17.5271C226.765 16.8375 228.546 16.4928 230.462 16.4928C232.415 16.4928 234.005 16.8375 235.231 17.5271C236.495 18.1783 237.472 19.021 238.161 20.0552C238.889 21.0895 239.368 22.2387 239.598 23.5028C239.866 24.7669 240 25.9927 240 27.1801C240 28.4059 239.904 29.5168 239.713 30.5128C239.559 31.5087 239.349 32.3131 239.081 32.926H224.486ZM229.427 20.6873C227.934 20.6873 226.765 21.3385 225.922 22.6409C225.118 23.905 224.639 25.916 224.486 28.6741H233.967C233.967 28.5208 233.967 28.3293 233.967 28.0995C234.005 27.8696 234.024 27.659 234.024 27.4674C234.024 26.8545 233.967 26.165 233.852 25.3989C233.737 24.5945 233.507 23.8475 233.162 23.158C232.818 22.4685 232.339 21.8939 231.726 21.4343C231.151 20.9363 230.385 20.6873 229.427 20.6873Z" fill="#FF7F00"/>
<path id="Vector_2" d="M211.848 1.66843C211.733 3.00913 211.637 4.38815 211.561 5.80546C211.522 7.22278 211.484 8.79332 211.446 10.5171C211.446 12.2025 211.427 14.0987 211.388 16.2055C211.388 18.3123 211.388 20.7256 211.388 23.4453C211.388 25.9735 211.388 28.2719 211.388 30.3404C211.388 32.3706 211.388 34.2667 211.388 36.0288C211.427 37.7909 211.446 39.4763 211.446 41.0852C211.484 42.6557 211.522 44.2646 211.561 45.9117H203.804C203.842 43.9198 203.88 42.1577 203.919 40.6255C203.995 39.0933 204.053 37.5036 204.091 35.8564C204.129 34.171 204.168 32.2748 204.206 30.168C204.244 28.0229 204.263 25.3415 204.263 22.1238C204.263 18.8678 204.244 15.6118 204.206 12.3558C204.168 9.06146 204.091 5.69054 203.976 2.24301L211.848 1.66843Z" fill="#FF7F00"/>
<path id="Vector_3" d="M199.445 45.6819C199.445 47.4823 198.947 49.1294 197.951 50.6233C196.955 52.1556 195.595 53.458 193.871 54.5305C192.186 55.6414 190.232 56.5033 188.011 57.1162C185.827 57.7291 183.529 58.0355 181.115 58.0355C179.698 58.0355 178.377 57.9206 177.151 57.6908C175.963 57.4609 174.929 57.097 174.048 56.5991C173.205 56.1011 172.535 55.469 172.037 54.7029C171.539 53.9368 171.29 53.0366 171.29 52.0024C171.29 50.5467 171.731 49.3209 172.612 48.325C173.531 47.329 174.833 46.3331 176.519 45.3371C175.638 45.0307 174.91 44.571 174.335 43.9581C173.799 43.3452 173.531 42.5025 173.531 41.4299C173.531 40.7021 173.665 40.0126 173.933 39.3614C174.201 38.7102 174.565 38.1165 175.025 37.5802C175.485 37.0439 176.002 36.5459 176.576 36.0863C177.151 35.6266 177.745 35.2052 178.357 34.8222C177.017 33.9794 175.963 32.9069 175.197 31.6045C174.469 30.3021 174.106 28.8081 174.106 27.1227C174.106 25.6288 174.412 24.2306 175.025 22.9282C175.638 21.6258 176.48 20.5149 177.553 19.5956C178.664 18.6379 179.985 17.891 181.518 17.3547C183.05 16.7801 184.716 16.4928 186.517 16.4928C187.244 16.4928 187.934 16.5503 188.585 16.6652C189.236 16.7418 189.868 16.8759 190.481 17.0674C190.711 16.646 191.094 16.1097 191.63 15.4585C192.167 14.769 192.799 14.0987 193.527 13.4475C194.293 12.7963 195.155 12.2217 196.112 11.7237C197.07 11.1874 198.066 10.8618 199.1 10.7469L199.387 17.3547C198.315 17.3547 197.261 17.4504 196.227 17.642C195.193 17.7952 194.254 18.025 193.412 18.3315C194.714 19.1742 195.71 20.2468 196.4 21.5492C197.127 22.8516 197.491 24.3072 197.491 25.916C197.491 27.4483 197.166 28.8656 196.514 30.168C195.902 31.4704 195.04 32.6004 193.929 33.5581C192.856 34.4774 191.554 35.2052 190.022 35.7415C188.528 36.2395 186.9 36.4885 185.138 36.4885C183.605 36.4885 182.15 36.2778 180.771 35.8564C180.311 36.5076 180.081 37.1971 180.081 37.9249C180.081 38.9592 180.503 39.6296 181.345 39.936C182.188 40.2041 183.222 40.3382 184.448 40.3382C185.138 40.3382 185.865 40.3191 186.632 40.2808C187.436 40.2424 188.221 40.2041 188.987 40.1658C189.753 40.0892 190.481 40.0318 191.171 39.9935C191.86 39.9552 192.435 39.936 192.895 39.936C195.001 39.936 196.61 40.4148 197.721 41.3725C198.87 42.3301 199.445 43.7666 199.445 45.6819ZM185.942 21.0895C184.18 21.0895 182.82 21.6258 181.862 22.6984C180.943 23.7709 180.483 25.1116 180.483 26.7205C180.483 28.4059 180.962 29.7083 181.92 30.6277C182.878 31.547 184.123 32.0067 185.655 32.0067C186.612 32.0067 187.436 31.8343 188.125 31.4896C188.815 31.1448 189.39 30.7043 189.849 30.168C190.309 29.5934 190.635 28.9805 190.826 28.3293C191.056 27.6398 191.171 26.9503 191.171 26.2608C191.171 24.8052 190.73 23.5794 189.849 22.5834C188.968 21.5875 187.666 21.0895 185.942 21.0895ZM193.067 48.6697C193.067 47.7887 192.626 47.1758 191.745 46.8311C190.864 46.4863 189.734 46.2756 188.355 46.199C187.015 46.1224 185.54 46.0841 183.931 46.0841C182.322 46.1224 180.809 46.0649 179.392 45.9117C178.166 47.0992 177.553 48.2292 177.553 49.3018C177.553 50.1828 178.128 50.9298 179.277 51.5427C180.426 52.1556 182.131 52.462 184.391 52.462C185.54 52.462 186.632 52.3663 187.666 52.1747C188.738 52.0215 189.677 51.7725 190.481 51.4278C191.286 51.083 191.918 50.6808 192.377 50.2211C192.837 49.7615 193.067 49.2443 193.067 48.6697Z" fill="#FF7F00"/>
<path id="Vector_4" d="M154.178 32.926C154.369 35.8373 154.963 37.8866 155.959 39.0741C156.955 40.2233 158.468 40.7979 160.498 40.7979C162.03 40.7979 163.467 40.568 164.808 40.1084C166.187 39.6487 167.317 39.2273 168.198 38.8443V43.6134C166.972 44.7242 165.44 45.4903 163.601 45.9117C161.762 46.3714 159.981 46.6012 158.257 46.6012C156.84 46.6012 155.442 46.4288 154.063 46.0841C152.684 45.7393 151.439 45.0881 150.328 44.1305C149.255 43.1345 148.374 41.7747 147.685 40.0509C147.034 38.2888 146.708 35.9905 146.708 33.1559C146.708 30.3595 147.053 27.9271 147.742 25.8586C148.432 23.7518 149.37 22.0088 150.558 20.6298C151.784 19.2508 153.201 18.2166 154.81 17.5271C156.457 16.8375 158.238 16.4928 160.153 16.4928C162.107 16.4928 163.697 16.8375 164.922 17.5271C166.187 18.1783 167.163 19.021 167.853 20.0552C168.581 21.0895 169.059 22.2387 169.289 23.5028C169.557 24.7669 169.692 25.9927 169.692 27.1801C169.692 28.4059 169.596 29.5168 169.404 30.5128C169.251 31.5087 169.04 32.3131 168.772 32.926H154.178ZM159.119 20.6873C157.625 20.6873 156.457 21.3385 155.614 22.6409C154.81 23.905 154.331 25.916 154.178 28.6741H163.658C163.658 28.5208 163.658 28.3293 163.658 28.0995C163.697 27.8696 163.716 27.659 163.716 27.4674C163.716 26.8545 163.658 26.165 163.543 25.3989C163.429 24.5945 163.199 23.8475 162.854 23.158C162.509 22.4685 162.03 21.8939 161.417 21.4343C160.843 20.9363 160.077 20.6873 159.119 20.6873Z" fill="#FF7F00"/>
<path id="Vector_5" d="M134.616 46.6012C134.347 45.7202 134.175 44.7625 134.098 43.7283C134.06 42.694 134.041 41.7938 134.041 41.0277C134.041 39.9551 134.06 38.8634 134.098 37.7526C134.175 36.6034 134.232 35.5117 134.271 34.4774C134.347 33.4048 134.405 32.4089 134.443 31.4895C134.52 30.5319 134.558 29.7083 134.558 29.0188C134.558 26.7588 134.175 25.2074 133.409 24.3647C132.681 23.5219 131.647 23.1006 130.306 23.1006C129.31 23.1006 128.41 23.2538 127.606 23.5602C126.801 23.8667 126.073 24.2497 125.422 24.7094C125.537 25.4755 125.594 26.2991 125.594 27.1801C125.594 27.7164 125.575 28.5017 125.537 29.5359C125.537 30.5702 125.518 31.6811 125.48 32.8686C125.441 34.0177 125.403 35.1286 125.365 36.2012C125.365 37.2737 125.365 38.0973 125.365 38.6719C125.365 39.936 125.441 41.1618 125.594 42.3493C125.748 43.4984 126.054 44.4561 126.514 45.2222L118.412 46.6012C118.144 45.7202 117.972 44.7625 117.895 43.7283C117.857 42.694 117.838 41.7938 117.838 41.0277C117.838 39.9551 117.857 38.8634 117.895 37.7526C117.972 36.6034 118.029 35.5117 118.067 34.4774C118.144 33.4048 118.201 32.4089 118.24 31.4895C118.316 30.5319 118.355 29.7083 118.355 29.0188C118.355 26.7588 117.972 25.2074 117.205 24.3647C116.478 23.5219 115.443 23.1006 114.103 23.1006C113.107 23.1006 112.187 23.2729 111.345 23.6177C110.54 23.9241 109.812 24.3072 109.161 24.7669C109.238 25.533 109.276 26.3566 109.276 27.2376C109.276 28.1186 109.276 29.1529 109.276 30.3404C109.276 32.1024 109.276 33.6921 109.276 35.1095C109.276 36.5268 109.276 37.8483 109.276 39.0741C109.314 40.2999 109.334 41.4682 109.334 42.5791C109.372 43.6517 109.41 44.7625 109.449 45.9117H101.634C101.672 44.9924 101.711 43.9581 101.749 42.8089C101.787 41.6598 101.826 40.4531 101.864 39.189C101.941 37.8866 101.998 36.5651 102.036 35.2244C102.075 33.8454 102.094 32.5238 102.094 31.2597C102.094 29.7658 102.056 28.5592 101.979 27.6398C101.902 26.6822 101.749 25.8586 101.519 25.1691C101.289 24.4413 100.983 23.7901 100.6 23.2155C100.217 22.6026 99.7189 21.9131 99.106 21.147L105.829 16.4928C106.595 17.6037 107.208 18.5805 107.667 19.4232C108.127 20.2276 108.472 21.0703 108.702 21.9514C109.276 21.3385 109.908 20.7064 110.598 20.0552C111.287 19.404 112.015 18.8103 112.781 18.274C113.547 17.7377 114.371 17.3164 115.252 17.0099C116.133 16.6652 117.071 16.4928 118.067 16.4928C119.485 16.4928 120.825 16.895 122.089 17.6994C123.354 18.5039 124.292 19.9212 124.905 21.9514C125.48 21.3385 126.112 20.7064 126.801 20.0552C127.491 19.404 128.218 18.8103 128.985 18.274C129.751 17.7377 130.574 17.3164 131.455 17.0099C132.336 16.6652 133.275 16.4928 134.271 16.4928C135.228 16.4928 136.148 16.6652 137.029 17.0099C137.948 17.3547 138.753 17.9293 139.442 18.7337C140.132 19.5381 140.687 20.6298 141.108 22.0088C141.53 23.3879 141.74 25.1116 141.74 27.1801C141.74 27.7164 141.721 28.5017 141.683 29.5359C141.683 30.5702 141.664 31.6811 141.625 32.8686C141.587 34.0177 141.549 35.1286 141.511 36.2012C141.511 37.2737 141.511 38.0973 141.511 38.6719C141.511 39.936 141.587 41.1618 141.74 42.3493C141.894 43.4984 142.2 44.4561 142.66 45.2222L134.616 46.6012Z" fill="#FF7F00"/>
<path id="Vector_6" d="M83.1006 21.2044C81.3002 21.2044 79.9212 22.1621 78.9636 24.0774C78.0059 25.9543 77.5271 28.54 77.5271 31.8343C77.5271 35.052 77.9102 37.561 78.6763 39.3614C79.4807 41.1235 80.8597 42.0045 82.8133 42.0045C84.6137 42.0045 86.0119 41.0277 87.0078 39.0741C88.0038 37.0822 88.5017 34.4391 88.5017 31.1448C88.5017 29.6126 88.4251 28.2336 88.2719 27.0078C88.1187 25.782 87.8314 24.7477 87.41 23.905C87.027 23.0239 86.4715 22.3536 85.7437 21.8939C85.0542 21.4343 84.1732 21.2044 83.1006 21.2044ZM70 32.0067C70 29.6317 70.3256 27.4866 70.9768 25.5713C71.628 23.656 72.5282 22.028 73.6774 20.6873C74.8648 19.3466 76.3013 18.3123 77.9868 17.5845C79.6722 16.8567 81.5492 16.4928 83.6177 16.4928C87.5249 16.4928 90.5511 17.7377 92.6962 20.2276C94.8797 22.7175 95.9714 26.2033 95.9714 30.6851C95.9714 33.0984 95.6458 35.2818 94.9946 37.2354C94.3434 39.189 93.424 40.8745 92.2366 42.2918C91.0491 43.6708 89.6126 44.7434 87.9272 45.5095C86.28 46.2373 84.4413 46.6012 82.4111 46.6012C80.4958 46.6012 78.772 46.2565 77.2398 45.567C75.7076 44.8775 74.4052 43.9007 73.3326 42.6366C72.26 41.3725 71.4365 39.8402 70.8619 38.0399C70.2873 36.2395 70 34.2284 70 32.0067Z" fill="#FF7F00"/>
</g>
</g>
</svg>
