<svg width="32" height="32" viewBox="0 0 32 32" fill="none" xmlns="http://www.w3.org/2000/svg">
<g id="Frame">
<path id="Vector" d="M21.3333 5.33333C22.0697 5.33333 22.6666 5.93029 22.6666 6.66667V12.2667L29.6177 7.40095C29.9193 7.1898 30.335 7.26316 30.5461 7.5648C30.6245 7.67685 30.6666 7.81032 30.6666 7.94711V24.0529C30.6666 24.4211 30.3681 24.7196 29.9999 24.7196C29.8631 24.7196 29.7297 24.6775 29.6177 24.5991L22.6666 19.7333V25.3333C22.6666 26.0697 22.0697 26.6667 21.3333 26.6667H2.66659C1.93021 26.6667 1.33325 26.0697 1.33325 25.3333V6.66667C1.33325 5.93029 1.93021 5.33333 2.66659 5.33333H21.3333ZM9.86659 11.7716C9.60885 11.7716 9.39383 11.9544 9.34409 12.1974L9.33325 12.3049V19.6951C9.33325 19.7965 9.36217 19.8959 9.41664 19.9815C9.555 20.1989 9.82469 20.2821 10.0564 20.1936L10.1529 20.1451L15.9595 16.45C16.0254 16.408 16.0813 16.3521 16.1231 16.2864C16.2615 16.0689 16.2227 15.7893 16.0443 15.6169L15.9595 15.55L10.1529 11.8549C10.0673 11.8005 9.96801 11.7716 9.86659 11.7716Z" fill="white"/>
</g>
</svg>
